<?xml version="1.0" encoding="iso-8859-1"?>
<!-- Generator: Adobe Illustrator 17.0.0, SVG Export Plug-In . SVG Version: 6.00 Build 0)  -->
<!DOCTYPE svg PUBLIC "-//W3C//DTD SVG 1.1//EN" "http://www.w3.org/Graphics/SVG/1.1/DTD/svg11.dtd">
<svg version="1.1" id="Capa_1" xmlns="http://www.w3.org/2000/svg" xmlns:xlink="http://www.w3.org/1999/xlink" x="0px" y="0px"
	 width="64px" height="64px" viewBox="0 0 64 64" style="enable-background:new 0 0 64 64;" xml:space="preserve">
<g>
	<path d="M39.33,5.054c0-1.219-1.155-2.207-2.58-2.207s-2.58,0.988-2.58,2.207s0,2.207,0,2.207h5.16V5.054z"/>
	<path d="M34.17,17.152c0,1.657-0.727,4.129-1.624,5.522l-1.513,2.35c-0.896,1.393-1.624,3.866-1.624,5.522v26.832
		c0,1.657,1.343,3,3,3h4.118h0.445h4.118c1.657,0,3-1.343,3-3V30.547c0-1.657-0.728-4.129-1.624-5.522l-1.513-2.35
		c-0.898-1.393-1.624-3.866-1.624-5.522v-9.18h-5.16V17.152z M42.044,32.707v16.105H31.456V32.707H42.044z"/>
</g>
</svg>
