<?xml version="1.0" encoding="UTF-8" standalone="yes"?><svg xmlns="http://www.w3.org/2000/svg" xmlns:xlink="http://www.w3.org/1999/xlink" height="539pt" style="width:1336px;height:539px;" version="1.1" viewBox="0 0 1336 539" width="1336pt"><defs><filter height="300%" id="f1" width="300%" x="-1" y="-1"><feGaussianBlur result="blurOut" stdDeviation="2.0"/><feColorMatrix in="blurOut" result="blurOut2" type="matrix" values="0 0 0 0 0 0 0 0 0 0 0 0 0 0 0 0 0 0 .4 0"/><feOffset dx="4.0" dy="4.0" in="blurOut2" result="blurOut3"/><feBlend in="SourceGraphic" in2="blurOut3" mode="normal"/></filter></defs><g><polygon fill="#FFFFFF" filter="url(#f1)" points="22,24,97,24,104,46.2969,1329,46.2969,1329,532,22,532,22,24" style="stroke: #000000; stroke-width: 2.0;"/><line style="stroke: #000000; stroke-width: 2.0;" x1="22" x2="104" y1="46.2969" y2="46.2969"/><text fill="#000000" font-family="sans-serif" font-size="14" font-weight="bold" lengthAdjust="spacingAndGlyphs" textLength="69" x="25" y="39.9951">wysiwyd</text><polygon fill="#FFFFFF" filter="url(#f1)" points="46,408,198,408,205,430.2969,395,430.2969,395,508,46,508,46,408" style="stroke: #000000; stroke-width: 2.0;"/><line style="stroke: #000000; stroke-width: 2.0;" x1="46" x2="205" y1="430.2969" y2="430.2969"/><text fill="#000000" font-family="sans-serif" font-size="14" font-weight="bold" lengthAdjust="spacingAndGlyphs" textLength="146" x="49" y="423.9951">wysiwyd.database</text><polygon fill="#FFFFFF" filter="url(#f1)" points="750,408,871,408,878,430.2969,882,430.2969,882,508,750,508,750,408" style="stroke: #000000; stroke-width: 2.0;"/><line style="stroke: #000000; stroke-width: 2.0;" x1="750" x2="878" y1="430.2969" y2="430.2969"/><text fill="#000000" font-family="sans-serif" font-size="14" font-weight="bold" lengthAdjust="spacingAndGlyphs" textLength="115" x="753" y="423.9951">wysiwyd.fonts</text><polygon fill="#FFFFFF" filter="url(#f1)" points="826,68,931,68,938,90.2969,1159,90.2969,1159,168,826,168,826,68" style="stroke: #000000; stroke-width: 2.0;"/><line style="stroke: #000000; stroke-width: 2.0;" x1="826" x2="938" y1="90.2969" y2="90.2969"/><text fill="#000000" font-family="sans-serif" font-size="14" font-weight="bold" lengthAdjust="spacingAndGlyphs" textLength="99" x="829" y="83.9951">wysiwyd.nfc</text><polygon fill="#FFFFFF" filter="url(#f1)" points="1017,408,1160,408,1167,430.2969,1305,430.2969,1305,508,1017,508,1017,408" style="stroke: #000000; stroke-width: 2.0;"/><line style="stroke: #000000; stroke-width: 2.0;" x1="1017" x2="1167" y1="430.2969" y2="430.2969"/><text fill="#000000" font-family="sans-serif" font-size="14" font-weight="bold" lengthAdjust="spacingAndGlyphs" textLength="137" x="1020" y="423.9951">wysiwyd.qr_code</text><polygon fill="#FFFFFF" filter="url(#f1)" points="1137,192,1271,192,1278,214.2969,1305,214.2969,1305,292,1137,292,1137,192" style="stroke: #000000; stroke-width: 2.0;"/><line style="stroke: #000000; stroke-width: 2.0;" x1="1137" x2="1278" y1="214.2969" y2="214.2969"/><text fill="#000000" font-family="sans-serif" font-size="14" font-weight="bold" lengthAdjust="spacingAndGlyphs" textLength="128" x="1140" y="207.9951">wysiwyd.search</text><polygon fill="#FFFFFF" filter="url(#f1)" points="419,408,632,408,639,430.2969,726,430.2969,726,508,419,508,419,408" style="stroke: #000000; stroke-width: 2.0;"/><line style="stroke: #000000; stroke-width: 2.0;" x1="419" x2="639" y1="430.2969" y2="430.2969"/><text fill="#000000" font-family="sans-serif" font-size="14" font-weight="bold" lengthAdjust="spacingAndGlyphs" textLength="207" x="422" y="423.9951">wysiwyd.zxing.integration</text><rect fill="#FEFECE" filter="url(#f1)" height="48" style="stroke: #A80036; stroke-width: 1.5;" width="205" x="286.75" y="228"/><ellipse cx="301.75" cy="244" fill="#A9DCDF" rx="11" ry="11" style="stroke: #A80036; stroke-width: 1.0;"/><path d="M301.8594,239.3438 L300.7031,244.4219 L303.0313,244.4219 L301.8594,239.3438 Z M300.375,237.1094 L303.3594,237.1094 L306.7188,249.5 L304.2656,249.5 L303.5,246.4375 L300.2188,246.4375 L299.4688,249.5 L297.0313,249.5 L300.375,237.1094 Z "/><text fill="#000000" font-family="sans-serif" font-size="12" font-style="italic" lengthAdjust="spacingAndGlyphs" textLength="173" x="315.75" y="248.1543">AbstractBottleInfoFragment</text><line style="stroke: #A80036; stroke-width: 1.5;" x1="287.75" x2="490.75" y1="260" y2="260"/><line style="stroke: #A80036; stroke-width: 1.5;" x1="287.75" x2="490.75" y1="268" y2="268"/><rect fill="#FEFECE" filter="url(#f1)" height="48" style="stroke: #A80036; stroke-width: 1.5;" width="99" x="898.75" y="444"/><ellipse cx="913.75" cy="460" fill="#ADD1B2" rx="11" ry="11" style="stroke: #A80036; stroke-width: 1.0;"/><path d="M916.7188,465.6406 Q916.1406,465.9375 915.5,466.0859 Q914.8594,466.2344 914.1563,466.2344 Q911.6563,466.2344 910.3359,464.5859 Q909.0156,462.9375 909.0156,459.8125 Q909.0156,456.6875 910.3359,455.0313 Q911.6563,453.375 914.1563,453.375 Q914.8594,453.375 915.5078,453.5313 Q916.1563,453.6875 916.7188,453.9844 L916.7188,456.7031 Q916.0938,456.125 915.5,455.8516 Q914.9063,455.5781 914.2813,455.5781 Q912.9375,455.5781 912.25,456.6484 Q911.5625,457.7188 911.5625,459.8125 Q911.5625,461.9063 912.25,462.9766 Q912.9375,464.0469 914.2813,464.0469 Q914.9063,464.0469 915.5,463.7734 Q916.0938,463.5 916.7188,462.9219 L916.7188,465.6406 Z "/><text fill="#000000" font-family="sans-serif" font-size="12" lengthAdjust="spacingAndGlyphs" textLength="67" x="927.75" y="464.1543">BlurBuilder</text><line style="stroke: #A80036; stroke-width: 1.5;" x1="899.75" x2="996.75" y1="476" y2="476"/><line style="stroke: #A80036; stroke-width: 1.5;" x1="899.75" x2="996.75" y1="484" y2="484"/><rect fill="#FEFECE" filter="url(#f1)" height="48" style="stroke: #A80036; stroke-width: 1.5;" width="160" x="684" y="336"/><ellipse cx="699" cy="352" fill="#ADD1B2" rx="11" ry="11" style="stroke: #A80036; stroke-width: 1.0;"/><path d="M701.9688,357.6406 Q701.3906,357.9375 700.75,358.0859 Q700.1094,358.2344 699.4063,358.2344 Q696.9063,358.2344 695.5859,356.5859 Q694.2656,354.9375 694.2656,351.8125 Q694.2656,348.6875 695.5859,347.0313 Q696.9063,345.375 699.4063,345.375 Q700.1094,345.375 700.7578,345.5313 Q701.4063,345.6875 701.9688,345.9844 L701.9688,348.7031 Q701.3438,348.125 700.75,347.8516 Q700.1563,347.5781 699.5313,347.5781 Q698.1875,347.5781 697.5,348.6484 Q696.8125,349.7188 696.8125,351.8125 Q696.8125,353.9063 697.5,354.9766 Q698.1875,356.0469 699.5313,356.0469 Q700.1563,356.0469 700.75,355.7734 Q701.3438,355.5 701.9688,354.9219 L701.9688,357.6406 Z "/><text fill="#000000" font-family="sans-serif" font-size="12" lengthAdjust="spacingAndGlyphs" textLength="128" x="713" y="356.1543">BottleCursorAdapter</text><line style="stroke: #A80036; stroke-width: 1.5;" x1="685" x2="843" y1="368" y2="368"/><line style="stroke: #A80036; stroke-width: 1.5;" x1="685" x2="843" y1="376" y2="376"/><rect fill="#FEFECE" filter="url(#f1)" height="48" style="stroke: #A80036; stroke-width: 1.5;" width="172" x="38" y="228"/><ellipse cx="53" cy="244" fill="#ADD1B2" rx="11" ry="11" style="stroke: #A80036; stroke-width: 1.0;"/><path d="M55.9688,249.6406 Q55.3906,249.9375 54.75,250.0859 Q54.1094,250.2344 53.4063,250.2344 Q50.9063,250.2344 49.5859,248.5859 Q48.2656,246.9375 48.2656,243.8125 Q48.2656,240.6875 49.5859,239.0313 Q50.9063,237.375 53.4063,237.375 Q54.1094,237.375 54.7578,237.5313 Q55.4063,237.6875 55.9688,237.9844 L55.9688,240.7031 Q55.3438,240.125 54.75,239.8516 Q54.1563,239.5781 53.5313,239.5781 Q52.1875,239.5781 51.5,240.6484 Q50.8125,241.7188 50.8125,243.8125 Q50.8125,245.9063 51.5,246.9766 Q52.1875,248.0469 53.5313,248.0469 Q54.1563,248.0469 54.75,247.7734 Q55.3438,247.5 55.9688,246.9219 L55.9688,249.6406 Z "/><text fill="#000000" font-family="sans-serif" font-size="12" lengthAdjust="spacingAndGlyphs" textLength="140" x="67" y="248.1543">BottleDetailsFragment</text><line style="stroke: #A80036; stroke-width: 1.5;" x1="39" x2="209" y1="260" y2="260"/><line style="stroke: #A80036; stroke-width: 1.5;" x1="39" x2="209" y1="268" y2="268"/><rect fill="#FEFECE" filter="url(#f1)" height="48" style="stroke: #A80036; stroke-width: 1.5;" width="157" x="526.75" y="228"/><ellipse cx="541.75" cy="244" fill="#ADD1B2" rx="11" ry="11" style="stroke: #A80036; stroke-width: 1.0;"/><path d="M544.7188,249.6406 Q544.1406,249.9375 543.5,250.0859 Q542.8594,250.2344 542.1563,250.2344 Q539.6563,250.2344 538.3359,248.5859 Q537.0156,246.9375 537.0156,243.8125 Q537.0156,240.6875 538.3359,239.0313 Q539.6563,237.375 542.1563,237.375 Q542.8594,237.375 543.5078,237.5313 Q544.1563,237.6875 544.7188,237.9844 L544.7188,240.7031 Q544.0938,240.125 543.5,239.8516 Q542.9063,239.5781 542.2813,239.5781 Q540.9375,239.5781 540.25,240.6484 Q539.5625,241.7188 539.5625,243.8125 Q539.5625,245.9063 540.25,246.9766 Q540.9375,248.0469 542.2813,248.0469 Q542.9063,248.0469 543.5,247.7734 Q544.0938,247.5 544.7188,246.9219 L544.7188,249.6406 Z "/><text fill="#000000" font-family="sans-serif" font-size="12" lengthAdjust="spacingAndGlyphs" textLength="125" x="555.75" y="248.1543">BottlesListFragment</text><line style="stroke: #A80036; stroke-width: 1.5;" x1="527.75" x2="682.75" y1="260" y2="260"/><line style="stroke: #A80036; stroke-width: 1.5;" x1="527.75" x2="682.75" y1="268" y2="268"/><rect fill="#FEFECE" filter="url(#f1)" height="48" style="stroke: #A80036; stroke-width: 1.5;" width="197" x="1018.75" y="336"/><ellipse cx="1033.75" cy="352" fill="#ADD1B2" rx="11" ry="11" style="stroke: #A80036; stroke-width: 1.0;"/><path d="M1036.7188,357.6406 Q1036.1406,357.9375 1035.5,358.0859 Q1034.8594,358.2344 1034.1563,358.2344 Q1031.6563,358.2344 1030.3359,356.5859 Q1029.0156,354.9375 1029.0156,351.8125 Q1029.0156,348.6875 1030.3359,347.0313 Q1031.6563,345.375 1034.1563,345.375 Q1034.8594,345.375 1035.5078,345.5313 Q1036.1563,345.6875 1036.7188,345.9844 L1036.7188,348.7031 Q1036.0938,348.125 1035.5,347.8516 Q1034.9063,347.5781 1034.2813,347.5781 Q1032.9375,347.5781 1032.25,348.6484 Q1031.5625,349.7188 1031.5625,351.8125 Q1031.5625,353.9063 1032.25,354.9766 Q1032.9375,356.0469 1034.2813,356.0469 Q1034.9063,356.0469 1035.5,355.7734 Q1036.0938,355.5 1036.7188,354.9219 L1036.7188,357.6406 Z "/><text fill="#000000" font-family="sans-serif" font-size="12" lengthAdjust="spacingAndGlyphs" textLength="165" x="1047.75" y="356.1543">GenerationChooserActivity</text><line style="stroke: #A80036; stroke-width: 1.5;" x1="1019.75" x2="1214.75" y1="368" y2="368"/><line style="stroke: #A80036; stroke-width: 1.5;" x1="1019.75" x2="1214.75" y1="376" y2="376"/><rect fill="#FEFECE" filter="url(#f1)" height="48" style="stroke: #A80036; stroke-width: 1.5;" width="104" x="879" y="336"/><ellipse cx="894" cy="352" fill="#ADD1B2" rx="11" ry="11" style="stroke: #A80036; stroke-width: 1.0;"/><path d="M896.9688,357.6406 Q896.3906,357.9375 895.75,358.0859 Q895.1094,358.2344 894.4063,358.2344 Q891.9063,358.2344 890.5859,356.5859 Q889.2656,354.9375 889.2656,351.8125 Q889.2656,348.6875 890.5859,347.0313 Q891.9063,345.375 894.4063,345.375 Q895.1094,345.375 895.7578,345.5313 Q896.4063,345.6875 896.9688,345.9844 L896.9688,348.7031 Q896.3438,348.125 895.75,347.8516 Q895.1563,347.5781 894.5313,347.5781 Q893.1875,347.5781 892.5,348.6484 Q891.8125,349.7188 891.8125,351.8125 Q891.8125,353.9063 892.5,354.9766 Q893.1875,356.0469 894.5313,356.0469 Q895.1563,356.0469 895.75,355.7734 Q896.3438,355.5 896.9688,354.9219 L896.9688,357.6406 Z "/><text fill="#000000" font-family="sans-serif" font-size="12" lengthAdjust="spacingAndGlyphs" textLength="72" x="908" y="356.1543">MainActivity</text><line style="stroke: #A80036; stroke-width: 1.5;" x1="880" x2="982" y1="368" y2="368"/><line style="stroke: #A80036; stroke-width: 1.5;" x1="880" x2="982" y1="376" y2="376"/><rect fill="#FEFECE" filter="url(#f1)" height="48" style="stroke: #A80036; stroke-width: 1.5;" width="168" x="112.5" y="336"/><ellipse cx="127.5" cy="352" fill="#ADD1B2" rx="11" ry="11" style="stroke: #A80036; stroke-width: 1.0;"/><path d="M130.4688,357.6406 Q129.8906,357.9375 129.25,358.0859 Q128.6094,358.2344 127.9063,358.2344 Q125.4063,358.2344 124.0859,356.5859 Q122.7656,354.9375 122.7656,351.8125 Q122.7656,348.6875 124.0859,347.0313 Q125.4063,345.375 127.9063,345.375 Q128.6094,345.375 129.2578,345.5313 Q129.9063,345.6875 130.4688,345.9844 L130.4688,348.7031 Q129.8438,348.125 129.25,347.8516 Q128.6563,347.5781 128.0313,347.5781 Q126.6875,347.5781 126,348.6484 Q125.3125,349.7188 125.3125,351.8125 Q125.3125,353.9063 126,354.9766 Q126.6875,356.0469 128.0313,356.0469 Q128.6563,356.0469 129.25,355.7734 Q129.8438,355.5 130.4688,354.9219 L130.4688,357.6406 Z "/><text fill="#000000" font-family="sans-serif" font-size="12" lengthAdjust="spacingAndGlyphs" textLength="136" x="141.5" y="356.1543">ModifyBottleFragment</text><line style="stroke: #A80036; stroke-width: 1.5;" x1="113.5" x2="279.5" y1="368" y2="368"/><line style="stroke: #A80036; stroke-width: 1.5;" x1="113.5" x2="279.5" y1="376" y2="376"/><rect fill="#FEFECE" filter="url(#f1)" height="48" style="stroke: #A80036; stroke-width: 1.5;" width="155" x="315.75" y="336"/><ellipse cx="330.75" cy="352" fill="#ADD1B2" rx="11" ry="11" style="stroke: #A80036; stroke-width: 1.0;"/><path d="M333.7188,357.6406 Q333.1406,357.9375 332.5,358.0859 Q331.8594,358.2344 331.1563,358.2344 Q328.6563,358.2344 327.3359,356.5859 Q326.0156,354.9375 326.0156,351.8125 Q326.0156,348.6875 327.3359,347.0313 Q328.6563,345.375 331.1563,345.375 Q331.8594,345.375 332.5078,345.5313 Q333.1563,345.6875 333.7188,345.9844 L333.7188,348.7031 Q333.0938,348.125 332.5,347.8516 Q331.9063,347.5781 331.2813,347.5781 Q329.9375,347.5781 329.25,348.6484 Q328.5625,349.7188 328.5625,351.8125 Q328.5625,353.9063 329.25,354.9766 Q329.9375,356.0469 331.2813,356.0469 Q331.9063,356.0469 332.5,355.7734 Q333.0938,355.5 333.7188,354.9219 L333.7188,357.6406 Z "/><text fill="#000000" font-family="sans-serif" font-size="12" lengthAdjust="spacingAndGlyphs" textLength="123" x="344.75" y="356.1543">NewBottleFragment</text><line style="stroke: #A80036; stroke-width: 1.5;" x1="316.75" x2="469.75" y1="368" y2="368"/><line style="stroke: #A80036; stroke-width: 1.5;" x1="316.75" x2="469.75" y1="376" y2="376"/><rect fill="#FEFECE" filter="url(#f1)" height="48" style="stroke: #A80036; stroke-width: 1.5;" width="121" x="436.75" y="104"/><ellipse cx="451.75" cy="120" fill="#ADD1B2" rx="11" ry="11" style="stroke: #A80036; stroke-width: 1.0;"/><path d="M454.7188,125.6406 Q454.1406,125.9375 453.5,126.0859 Q452.8594,126.2344 452.1563,126.2344 Q449.6563,126.2344 448.3359,124.5859 Q447.0156,122.9375 447.0156,119.8125 Q447.0156,116.6875 448.3359,115.0313 Q449.6563,113.375 452.1563,113.375 Q452.8594,113.375 453.5078,113.5313 Q454.1563,113.6875 454.7188,113.9844 L454.7188,116.7031 Q454.0938,116.125 453.5,115.8516 Q452.9063,115.5781 452.2813,115.5781 Q450.9375,115.5781 450.25,116.6484 Q449.5625,117.7188 449.5625,119.8125 Q449.5625,121.9063 450.25,122.9766 Q450.9375,124.0469 452.2813,124.0469 Q452.9063,124.0469 453.5,123.7734 Q454.0938,123.5 454.7188,122.9219 L454.7188,125.6406 Z "/><text fill="#000000" font-family="sans-serif" font-size="12" lengthAdjust="spacingAndGlyphs" textLength="89" x="465.75" y="124.1543">ResultsActivity</text><line style="stroke: #A80036; stroke-width: 1.5;" x1="437.75" x2="556.75" y1="136" y2="136"/><line style="stroke: #A80036; stroke-width: 1.5;" x1="437.75" x2="556.75" y1="144" y2="144"/><rect fill="#FEFECE" filter="url(#f1)" height="48" style="stroke: #A80036; stroke-width: 1.5;" width="105" x="543.75" y="336"/><ellipse cx="558.75" cy="352" fill="#ADD1B2" rx="11" ry="11" style="stroke: #A80036; stroke-width: 1.0;"/><path d="M561.7188,357.6406 Q561.1406,357.9375 560.5,358.0859 Q559.8594,358.2344 559.1563,358.2344 Q556.6563,358.2344 555.3359,356.5859 Q554.0156,354.9375 554.0156,351.8125 Q554.0156,348.6875 555.3359,347.0313 Q556.6563,345.375 559.1563,345.375 Q559.8594,345.375 560.5078,345.5313 Q561.1563,345.6875 561.7188,345.9844 L561.7188,348.7031 Q561.0938,348.125 560.5,347.8516 Q559.9063,347.5781 559.2813,347.5781 Q557.9375,347.5781 557.25,348.6484 Q556.5625,349.7188 556.5625,351.8125 Q556.5625,353.9063 557.25,354.9766 Q557.9375,356.0469 559.2813,356.0469 Q559.9063,356.0469 560.5,355.7734 Q561.0938,355.5 561.7188,354.9219 L561.7188,357.6406 Z "/><text fill="#000000" font-family="sans-serif" font-size="12" lengthAdjust="spacingAndGlyphs" textLength="73" x="572.75" y="356.1543">ScanChoice</text><line style="stroke: #A80036; stroke-width: 1.5;" x1="544.75" x2="647.75" y1="368" y2="368"/><line style="stroke: #A80036; stroke-width: 1.5;" x1="544.75" x2="647.75" y1="376" y2="376"/><rect fill="#FEFECE" filter="url(#f1)" height="48" style="stroke: #A80036; stroke-width: 1.5;" width="147" x="231.75" y="444"/><ellipse cx="246.75" cy="460" fill="#ADD1B2" rx="11" ry="11" style="stroke: #A80036; stroke-width: 1.0;"/><path d="M249.7188,465.6406 Q249.1406,465.9375 248.5,466.0859 Q247.8594,466.2344 247.1563,466.2344 Q244.6563,466.2344 243.3359,464.5859 Q242.0156,462.9375 242.0156,459.8125 Q242.0156,456.6875 243.3359,455.0313 Q244.6563,453.375 247.1563,453.375 Q247.8594,453.375 248.5078,453.5313 Q249.1563,453.6875 249.7188,453.9844 L249.7188,456.7031 Q249.0938,456.125 248.5,455.8516 Q247.9063,455.5781 247.2813,455.5781 Q245.9375,455.5781 245.25,456.6484 Q244.5625,457.7188 244.5625,459.8125 Q244.5625,461.9063 245.25,462.9766 Q245.9375,464.0469 247.2813,464.0469 Q247.9063,464.0469 248.5,463.7734 Q249.0938,463.5 249.7188,462.9219 L249.7188,465.6406 Z "/><text fill="#000000" font-family="sans-serif" font-size="12" lengthAdjust="spacingAndGlyphs" textLength="115" x="260.75" y="464.1543">DatabaseContract</text><line style="stroke: #A80036; stroke-width: 1.5;" x1="232.75" x2="377.75" y1="476" y2="476"/><line style="stroke: #A80036; stroke-width: 1.5;" x1="232.75" x2="377.75" y1="484" y2="484"/><rect fill="#FEFECE" filter="url(#f1)" height="48" style="stroke: #A80036; stroke-width: 1.5;" width="134" x="62" y="444"/><ellipse cx="77" cy="460" fill="#ADD1B2" rx="11" ry="11" style="stroke: #A80036; stroke-width: 1.0;"/><path d="M79.9688,465.6406 Q79.3906,465.9375 78.75,466.0859 Q78.1094,466.2344 77.4063,466.2344 Q74.9063,466.2344 73.5859,464.5859 Q72.2656,462.9375 72.2656,459.8125 Q72.2656,456.6875 73.5859,455.0313 Q74.9063,453.375 77.4063,453.375 Q78.1094,453.375 78.7578,453.5313 Q79.4063,453.6875 79.9688,453.9844 L79.9688,456.7031 Q79.3438,456.125 78.75,455.8516 Q78.1563,455.5781 77.5313,455.5781 Q76.1875,455.5781 75.5,456.6484 Q74.8125,457.7188 74.8125,459.8125 Q74.8125,461.9063 75.5,462.9766 Q76.1875,464.0469 77.5313,464.0469 Q78.1563,464.0469 78.75,463.7734 Q79.3438,463.5 79.9688,462.9219 L79.9688,465.6406 Z "/><text fill="#000000" font-family="sans-serif" font-size="12" lengthAdjust="spacingAndGlyphs" textLength="102" x="91" y="464.1543">DatabaseHelper</text><line style="stroke: #A80036; stroke-width: 1.5;" x1="63" x2="195" y1="476" y2="476"/><line style="stroke: #A80036; stroke-width: 1.5;" x1="63" x2="195" y1="484" y2="484"/><rect fill="#FEFECE" filter="url(#f1)" height="48" style="stroke: #A80036; stroke-width: 1.5;" width="67" x="781.75" y="444"/><ellipse cx="796.75" cy="460" fill="#ADD1B2" rx="11" ry="11" style="stroke: #A80036; stroke-width: 1.0;"/><path d="M799.7188,465.6406 Q799.1406,465.9375 798.5,466.0859 Q797.8594,466.2344 797.1563,466.2344 Q794.6563,466.2344 793.3359,464.5859 Q792.0156,462.9375 792.0156,459.8125 Q792.0156,456.6875 793.3359,455.0313 Q794.6563,453.375 797.1563,453.375 Q797.8594,453.375 798.5078,453.5313 Q799.1563,453.6875 799.7188,453.9844 L799.7188,456.7031 Q799.0938,456.125 798.5,455.8516 Q797.9063,455.5781 797.2813,455.5781 Q795.9375,455.5781 795.25,456.6484 Q794.5625,457.7188 794.5625,459.8125 Q794.5625,461.9063 795.25,462.9766 Q795.9375,464.0469 797.2813,464.0469 Q797.9063,464.0469 798.5,463.7734 Q799.0938,463.5 799.7188,462.9219 L799.7188,465.6406 Z "/><text fill="#000000" font-family="sans-serif" font-size="12" lengthAdjust="spacingAndGlyphs" textLength="35" x="810.75" y="464.1543">Fonts</text><line style="stroke: #A80036; stroke-width: 1.5;" x1="782.75" x2="847.75" y1="476" y2="476"/><line style="stroke: #A80036; stroke-width: 1.5;" x1="782.75" x2="847.75" y1="484" y2="484"/><rect fill="#FEFECE" filter="url(#f1)" height="48" style="stroke: #A80036; stroke-width: 1.5;" width="130" x="1013" y="104"/><ellipse cx="1028" cy="120" fill="#ADD1B2" rx="11" ry="11" style="stroke: #A80036; stroke-width: 1.0;"/><path d="M1030.9688,125.6406 Q1030.3906,125.9375 1029.75,126.0859 Q1029.1094,126.2344 1028.4063,126.2344 Q1025.9063,126.2344 1024.5859,124.5859 Q1023.2656,122.9375 1023.2656,119.8125 Q1023.2656,116.6875 1024.5859,115.0313 Q1025.9063,113.375 1028.4063,113.375 Q1029.1094,113.375 1029.7578,113.5313 Q1030.4063,113.6875 1030.9688,113.9844 L1030.9688,116.7031 Q1030.3438,116.125 1029.75,115.8516 Q1029.1563,115.5781 1028.5313,115.5781 Q1027.1875,115.5781 1026.5,116.6484 Q1025.8125,117.7188 1025.8125,119.8125 Q1025.8125,121.9063 1026.5,122.9766 Q1027.1875,124.0469 1028.5313,124.0469 Q1029.1563,124.0469 1029.75,123.7734 Q1030.3438,123.5 1030.9688,122.9219 L1030.9688,125.6406 Z "/><text fill="#000000" font-family="sans-serif" font-size="12" lengthAdjust="spacingAndGlyphs" textLength="98" x="1042" y="124.1543">NFCScanActivity</text><line style="stroke: #A80036; stroke-width: 1.5;" x1="1014" x2="1142" y1="136" y2="136"/><line style="stroke: #A80036; stroke-width: 1.5;" x1="1014" x2="1142" y1="144" y2="144"/><rect fill="#FEFECE" filter="url(#f1)" height="48" style="stroke: #A80036; stroke-width: 1.5;" width="136" x="842" y="104"/><ellipse cx="857" cy="120" fill="#ADD1B2" rx="11" ry="11" style="stroke: #A80036; stroke-width: 1.0;"/><path d="M859.9688,125.6406 Q859.3906,125.9375 858.75,126.0859 Q858.1094,126.2344 857.4063,126.2344 Q854.9063,126.2344 853.5859,124.5859 Q852.2656,122.9375 852.2656,119.8125 Q852.2656,116.6875 853.5859,115.0313 Q854.9063,113.375 857.4063,113.375 Q858.1094,113.375 858.7578,113.5313 Q859.4063,113.6875 859.9688,113.9844 L859.9688,116.7031 Q859.3438,116.125 858.75,115.8516 Q858.1563,115.5781 857.5313,115.5781 Q856.1875,115.5781 855.5,116.6484 Q854.8125,117.7188 854.8125,119.8125 Q854.8125,121.9063 855.5,122.9766 Q856.1875,124.0469 857.5313,124.0469 Q858.1563,124.0469 858.75,123.7734 Q859.3438,123.5 859.9688,122.9219 L859.9688,125.6406 Z "/><text fill="#000000" font-family="sans-serif" font-size="12" lengthAdjust="spacingAndGlyphs" textLength="104" x="871" y="124.1543">NFCWriterActivity</text><line style="stroke: #A80036; stroke-width: 1.5;" x1="843" x2="977" y1="136" y2="136"/><line style="stroke: #A80036; stroke-width: 1.5;" x1="843" x2="977" y1="144" y2="144"/><rect fill="#FEFECE" filter="url(#f1)" height="48" style="stroke: #A80036; stroke-width: 1.5;" width="89" x="1200.75" y="444"/><ellipse cx="1215.75" cy="460" fill="#ADD1B2" rx="11" ry="11" style="stroke: #A80036; stroke-width: 1.0;"/><path d="M1218.7188,465.6406 Q1218.1406,465.9375 1217.5,466.0859 Q1216.8594,466.2344 1216.1563,466.2344 Q1213.6563,466.2344 1212.3359,464.5859 Q1211.0156,462.9375 1211.0156,459.8125 Q1211.0156,456.6875 1212.3359,455.0313 Q1213.6563,453.375 1216.1563,453.375 Q1216.8594,453.375 1217.5078,453.5313 Q1218.1563,453.6875 1218.7188,453.9844 L1218.7188,456.7031 Q1218.0938,456.125 1217.5,455.8516 Q1216.9063,455.5781 1216.2813,455.5781 Q1214.9375,455.5781 1214.25,456.6484 Q1213.5625,457.7188 1213.5625,459.8125 Q1213.5625,461.9063 1214.25,462.9766 Q1214.9375,464.0469 1216.2813,464.0469 Q1216.9063,464.0469 1217.5,463.7734 Q1218.0938,463.5 1218.7188,462.9219 L1218.7188,465.6406 Z "/><text fill="#000000" font-family="sans-serif" font-size="12" lengthAdjust="spacingAndGlyphs" textLength="57" x="1229.75" y="464.1543">Contents</text><line style="stroke: #A80036; stroke-width: 1.5;" x1="1201.75" x2="1288.75" y1="476" y2="476"/><line style="stroke: #A80036; stroke-width: 1.5;" x1="1201.75" x2="1288.75" y1="484" y2="484"/><rect fill="#FEFECE" filter="url(#f1)" height="48" style="stroke: #A80036; stroke-width: 1.5;" width="132" x="1033" y="444"/><ellipse cx="1048" cy="460" fill="#ADD1B2" rx="11" ry="11" style="stroke: #A80036; stroke-width: 1.0;"/><path d="M1050.9688,465.6406 Q1050.3906,465.9375 1049.75,466.0859 Q1049.1094,466.2344 1048.4063,466.2344 Q1045.9063,466.2344 1044.5859,464.5859 Q1043.2656,462.9375 1043.2656,459.8125 Q1043.2656,456.6875 1044.5859,455.0313 Q1045.9063,453.375 1048.4063,453.375 Q1049.1094,453.375 1049.7578,453.5313 Q1050.4063,453.6875 1050.9688,453.9844 L1050.9688,456.7031 Q1050.3438,456.125 1049.75,455.8516 Q1049.1563,455.5781 1048.5313,455.5781 Q1047.1875,455.5781 1046.5,456.6484 Q1045.8125,457.7188 1045.8125,459.8125 Q1045.8125,461.9063 1046.5,462.9766 Q1047.1875,464.0469 1048.5313,464.0469 Q1049.1563,464.0469 1049.75,463.7734 Q1050.3438,463.5 1050.9688,462.9219 L1050.9688,465.6406 Z "/><text fill="#000000" font-family="sans-serif" font-size="12" lengthAdjust="spacingAndGlyphs" textLength="100" x="1062" y="464.1543">QRcodeEncoder</text><line style="stroke: #A80036; stroke-width: 1.5;" x1="1034" x2="1164" y1="476" y2="476"/><line style="stroke: #A80036; stroke-width: 1.5;" x1="1034" x2="1164" y1="484" y2="484"/><rect fill="#FEFECE" filter="url(#f1)" height="48" style="stroke: #A80036; stroke-width: 1.5;" width="136" x="1153" y="228"/><ellipse cx="1168" cy="244" fill="#ADD1B2" rx="11" ry="11" style="stroke: #A80036; stroke-width: 1.0;"/><path d="M1170.9688,249.6406 Q1170.3906,249.9375 1169.75,250.0859 Q1169.1094,250.2344 1168.4063,250.2344 Q1165.9063,250.2344 1164.5859,248.5859 Q1163.2656,246.9375 1163.2656,243.8125 Q1163.2656,240.6875 1164.5859,239.0313 Q1165.9063,237.375 1168.4063,237.375 Q1169.1094,237.375 1169.7578,237.5313 Q1170.4063,237.6875 1170.9688,237.9844 L1170.9688,240.7031 Q1170.3438,240.125 1169.75,239.8516 Q1169.1563,239.5781 1168.5313,239.5781 Q1167.1875,239.5781 1166.5,240.6484 Q1165.8125,241.7188 1165.8125,243.8125 Q1165.8125,245.9063 1166.5,246.9766 Q1167.1875,248.0469 1168.5313,248.0469 Q1169.1563,248.0469 1169.75,247.7734 Q1170.3438,247.5 1170.9688,246.9219 L1170.9688,249.6406 Z "/><text fill="#000000" font-family="sans-serif" font-size="12" lengthAdjust="spacingAndGlyphs" textLength="104" x="1182" y="248.1543">SearchFragment</text><line style="stroke: #A80036; stroke-width: 1.5;" x1="1154" x2="1288" y1="260" y2="260"/><line style="stroke: #A80036; stroke-width: 1.5;" x1="1154" x2="1288" y1="268" y2="268"/><rect fill="#FEFECE" filter="url(#f1)" height="48" style="stroke: #A80036; stroke-width: 1.5;" width="132" x="578" y="444"/><ellipse cx="593" cy="460" fill="#ADD1B2" rx="11" ry="11" style="stroke: #A80036; stroke-width: 1.0;"/><path d="M595.9688,465.6406 Q595.3906,465.9375 594.75,466.0859 Q594.1094,466.2344 593.4063,466.2344 Q590.9063,466.2344 589.5859,464.5859 Q588.2656,462.9375 588.2656,459.8125 Q588.2656,456.6875 589.5859,455.0313 Q590.9063,453.375 593.4063,453.375 Q594.1094,453.375 594.7578,453.5313 Q595.4063,453.6875 595.9688,453.9844 L595.9688,456.7031 Q595.3438,456.125 594.75,455.8516 Q594.1563,455.5781 593.5313,455.5781 Q592.1875,455.5781 591.5,456.6484 Q590.8125,457.7188 590.8125,459.8125 Q590.8125,461.9063 591.5,462.9766 Q592.1875,464.0469 593.5313,464.0469 Q594.1563,464.0469 594.75,463.7734 Q595.3438,463.5 595.9688,462.9219 L595.9688,465.6406 Z "/><text fill="#000000" font-family="sans-serif" font-size="12" lengthAdjust="spacingAndGlyphs" textLength="100" x="607" y="464.1543">IntentIntegrator</text><line style="stroke: #A80036; stroke-width: 1.5;" x1="579" x2="709" y1="476" y2="476"/><line style="stroke: #A80036; stroke-width: 1.5;" x1="579" x2="709" y1="484" y2="484"/><rect fill="#FEFECE" filter="url(#f1)" height="48" style="stroke: #A80036; stroke-width: 1.5;" width="108" x="435" y="444"/><ellipse cx="450" cy="460" fill="#ADD1B2" rx="11" ry="11" style="stroke: #A80036; stroke-width: 1.0;"/><path d="M452.9688,465.6406 Q452.3906,465.9375 451.75,466.0859 Q451.1094,466.2344 450.4063,466.2344 Q447.9063,466.2344 446.5859,464.5859 Q445.2656,462.9375 445.2656,459.8125 Q445.2656,456.6875 446.5859,455.0313 Q447.9063,453.375 450.4063,453.375 Q451.1094,453.375 451.7578,453.5313 Q452.4063,453.6875 452.9688,453.9844 L452.9688,456.7031 Q452.3438,456.125 451.75,455.8516 Q451.1563,455.5781 450.5313,455.5781 Q449.1875,455.5781 448.5,456.6484 Q447.8125,457.7188 447.8125,459.8125 Q447.8125,461.9063 448.5,462.9766 Q449.1875,464.0469 450.5313,464.0469 Q451.1563,464.0469 451.75,463.7734 Q452.3438,463.5 452.9688,462.9219 L452.9688,465.6406 Z "/><text fill="#000000" font-family="sans-serif" font-size="12" lengthAdjust="spacingAndGlyphs" textLength="76" x="464" y="464.1543">IntentResult</text><line style="stroke: #A80036; stroke-width: 1.5;" x1="436" x2="542" y1="476" y2="476"/><line style="stroke: #A80036; stroke-width: 1.5;" x1="436" x2="542" y1="484" y2="484"/><path d="M329.534,285.66 C299.952,301.907 264.898,321.16 238.129,335.862 " fill="none" style="stroke: #A80036; stroke-width: 1.0;"/><polygon fill="none" points="326.222,279.493,347.122,276,332.962,291.764,326.222,279.493" style="stroke: #A80036; stroke-width: 1.0;"/><path d="M390.624,296.024 C391.135,309.579 391.681,324.038 392.12,335.678 " fill="none" style="stroke: #A80036; stroke-width: 1.0;"/><polygon fill="none" points="383.627,296.25,389.868,276,397.617,295.722,383.627,296.25" style="stroke: #A80036; stroke-width: 1.0;"/><path d="M467.572,162.243 C449.163,183.039 425.91,209.305 409.492,227.852 " fill="none" style="stroke: #A80036; stroke-width: 1.0;"/><polygon fill="#A80036" points="476.432,152.234,469.4599,154.0753,468.478,161.2192,475.4501,159.3779,476.432,152.234" style="stroke: #A80036; stroke-width: 1.0;"/><path d="M526.428,162.243 C544.837,183.039 568.09,209.305 584.508,227.852 " fill="none" style="stroke: #A80036; stroke-width: 1.0;"/><polygon fill="#A80036" points="517.568,152.234,518.5499,159.3779,525.522,161.2192,524.5401,154.0753,517.568,152.234" style="stroke: #A80036; stroke-width: 1.0;"/><path d="M423.482,138.008 C370.375,146.071 297.629,160.356 237,184 C208.314,195.187 178.459,213.207 156.644,227.743 " fill="none" style="stroke: #A80036; stroke-width: 1.0;"/><polygon fill="#A80036" points="436.541,136.09,430.0236,133.004,424.6683,137.8332,431.1857,140.9192,436.541,136.09" style="stroke: #A80036; stroke-width: 1.0;"/><path d="M934.689,384 C937.255,400.003 940.694,421.446 943.434,438.528 " fill="none" style="stroke: #A80036; stroke-width: 1.0; stroke-dasharray: 7.0,7.0;"/><polygon fill="#A80036" points="944.26,443.678,946.7824,434.1576,943.4672,438.7413,938.8836,435.4261,944.26,443.678" style="stroke: #A80036; stroke-width: 1.0;"/><path d="M648.387,379.693 C654.276,381.35 660.232,382.838 666,384 C752.981,401.527 782.589,367.115 865,400 C887.04,408.795 907.811,425.572 923.062,440.137 " fill="none" style="stroke: #A80036; stroke-width: 1.0; stroke-dasharray: 7.0,7.0;"/><polygon fill="#A80036" points="926.818,443.786,923.151,434.6453,923.2321,440.3015,917.5758,440.3827,926.818,443.786" style="stroke: #A80036; stroke-width: 1.0;"/><path d="M1047.18,384.062 C1036.72,388.69 1026.33,394.005 1017,400 C999.924,410.976 983.506,426.637 970.972,440.058 " fill="none" style="stroke: #A80036; stroke-width: 1.0; stroke-dasharray: 7.0,7.0;"/><polygon fill="#A80036" points="967.542,443.778,976.5833,439.8722,970.9311,440.1018,970.7014,434.4497,967.542,443.778" style="stroke: #A80036; stroke-width: 1.0;"/><path d="M557.488,144.972 C731.636,191.088 1222.48,322.061 1233,336 C1245.85,353.028 1247.52,368.368 1233,384 C1200.25,419.269 1060.9,380.272 1017,400 C997.649,408.695 980.51,425.263 968.154,439.747 " fill="none" style="stroke: #A80036; stroke-width: 1.0; stroke-dasharray: 7.0,7.0;"/><polygon fill="#A80036" points="964.798,443.769,973.6353,439.4212,968.0013,439.9299,967.4927,434.2959,964.798,443.769" style="stroke: #A80036; stroke-width: 1.0;"/><path d="M650.573,283.382 C675.621,300.081 706.199,320.466 729.293,335.862 " fill="none" style="stroke: #A80036; stroke-width: 1.0;"/><polygon fill="#A80036" points="639.501,276,642.2741,282.6566,649.4852,282.657,646.7121,276.0004,639.501,276" style="stroke: #A80036; stroke-width: 1.0;"/><path d="M878.674,380.017 C872.773,381.614 866.798,382.998 861,384 C790.139,396.243 281.646,375.604 214,400 C191.187,408.227 169.772,425.188 154.144,439.986 " fill="none" style="stroke: #A80036; stroke-width: 1.0;"/><polygon fill="#A80036" points="150.298,443.694,159.5532,440.3262,153.8972,440.2233,154.0001,434.5674,150.298,443.694" style="stroke: #A80036; stroke-width: 1.0;"/><path d="M102.2323,276.342 C89.2339,291.936 73.9421,313.628 67,336 C60.6775,356.375 60.2733,363.755 67,384 C74.0058,405.085 88.687,425.148 102.0048,440.265 " fill="none" style="stroke: #A80036; stroke-width: 1.0;"/><polygon fill="#A80036" points="105.3559,443.999,102.3213,434.6293,102.0162,440.2779,96.3676,439.9728,105.3559,443.999" style="stroke: #A80036; stroke-width: 1.0;"/><path d="M582.025,276.154 C565.985,292.553 544.265,315.239 526,336 C507.844,356.638 511.463,371.465 487,384 C432.916,411.712 270.81,378.42 214,400 C191.33,408.612 169.913,425.57 154.249,440.269 " fill="none" style="stroke: #A80036; stroke-width: 1.0;"/><polygon fill="#A80036" points="150.393,443.951,159.665,440.63,154.0097,440.4986,154.1411,434.8432,150.393,443.951" style="stroke: #A80036; stroke-width: 1.0;"/><path d="M1018.56,381.619 C1012.3,382.538 1006.07,383.346 1000,384 C913.15,393.349 296.236,370.545 214,400 C191.006,408.236 169.449,425.382 153.797,440.266 " fill="none" style="stroke: #A80036; stroke-width: 1.0;"/><polygon fill="#A80036" points="149.948,443.994,159.1956,440.6056,153.5395,440.5153,153.6298,434.8592,149.948,443.994" style="stroke: #A80036; stroke-width: 1.0;"/><path d="M181.462,384 C171.173,400.279 157.325,422.187 146.44,439.408 " fill="none" style="stroke: #A80036; stroke-width: 1.0;"/><polygon fill="#A80036" points="143.741,443.678,151.9304,438.2069,146.4121,439.4513,145.1677,433.933,143.741,443.678" style="stroke: #A80036; stroke-width: 1.0;"/><path d="M315.499,379.669 C308.911,381.167 302.344,382.63 296,384 C259.706,391.841 247.75,384.517 214,400 C192.43,409.895 171.455,426.334 155.737,440.452 " fill="none" style="stroke: #A80036; stroke-width: 1.0;"/><polygon fill="#A80036" points="151.858,443.986,161.2048,440.8815,155.554,440.6186,155.8169,434.9678,151.858,443.986" style="stroke: #A80036; stroke-width: 1.0;"/><path d="M436.748,136.986 C377.828,145.922 293.5,162.072 269,184 C228.144,220.567 267.347,262.872 227,300 C181.938,341.467 131.218,287.369 94,336 C70.7774,366.344 91.0739,410.873 109.039,439.401 " fill="none" style="stroke: #A80036; stroke-width: 1.0;"/><polygon fill="#A80036" points="111.895,443.837,110.388,434.1041,109.1891,439.6325,103.6608,438.4335,111.895,443.837" style="stroke: #A80036; stroke-width: 1.0;"/><path d="M543.46,377.935 C534.383,380.333 524.979,382.492 516,384 C449.723,395.134 276.892,376.311 214,400 C191.305,408.548 169.89,425.506 154.231,440.222 " fill="none" style="stroke: #A80036; stroke-width: 1.0;"/><polygon fill="#A80036" points="150.377,443.909,159.6457,440.5786,153.9902,440.4529,154.116,434.7975,150.377,443.909" style="stroke: #A80036; stroke-width: 1.0;"/><path d="M775.066,384 C782.832,400.141 793.261,421.816 801.513,438.969 " fill="none" style="stroke: #A80036; stroke-width: 1.0;"/><polygon fill="#A80036" points="803.779,443.678,803.4802,433.8337,801.6106,439.1727,796.2716,437.3031,803.779,443.678" style="stroke: #A80036; stroke-width: 1.0;"/><path d="M878.752,381.136 C869.158,386.338 859.743,392.605 852,400 C840.617,410.871 831.847,426.026 825.708,439.174 " fill="none" style="stroke: #A80036; stroke-width: 1.0;"/><polygon fill="#A80036" points="823.565,443.915,830.9161,437.3606,825.6239,439.3586,823.6259,434.0663,823.565,443.915" style="stroke: #A80036; stroke-width: 1.0;"/><path d="M648.265,378.532 C654.231,380.427 660.237,382.286 666,384 C692.454,391.866 701.184,387.922 726,400 C747.642,410.533 769.276,426.66 785.795,440.452 " fill="none" style="stroke: #A80036; stroke-width: 1.0;"/><polygon fill="#A80036" points="789.881,443.903,785.5854,435.0403,786.0608,440.6771,780.424,441.1526,789.881,443.903" style="stroke: #A80036; stroke-width: 1.0;"/><path d="M1018.48,380.998 C1012.24,382.07 1006.04,383.082 1000,384 C967.295,388.973 879.544,381.679 852,400 C838.283,409.124 829.174,425.126 823.427,439.203 " fill="none" style="stroke: #A80036; stroke-width: 1.0;"/><polygon fill="#A80036" points="821.605,443.891,828.594,436.9517,823.4165,439.2307,821.1375,434.0532,821.605,443.891" style="stroke: #A80036; stroke-width: 1.0;"/><path d="M1113.09,384 C1110.38,400.003 1106.74,421.446 1103.83,438.528 " fill="none" style="stroke: #A80036; stroke-width: 1.0;"/><polygon fill="#A80036" points="1102.96,443.678,1108.4106,435.4749,1103.7973,438.7486,1100.5236,434.1353,1102.96,443.678" style="stroke: #A80036; stroke-width: 1.0;"/><path d="M570.221,141.971 C636.71,153.149 737.597,168.616 826,176 C861.775,178.988 1115.76,170.448 1149,184 C1171.14,193.024 1190.59,212.216 1203.68,227.756 " fill="none" style="stroke: #A80036; stroke-width: 1.0;"/><polygon fill="#A80036" points="557.396,139.796,562.643,144.7426,569.2272,141.8017,563.9802,136.8551,557.396,139.796" style="stroke: #A80036; stroke-width: 1.0;"/><path d="M606.415,384 C613.724,400.141 623.539,421.816 631.307,438.969 " fill="none" style="stroke: #A80036; stroke-width: 1.0;"/><polygon fill="#A80036" points="633.439,443.678,633.3693,433.8294,631.376,439.1234,626.082,437.1302,633.439,443.678" style="stroke: #A80036; stroke-width: 1.0;"/><path d="M572.783,384 C556.211,400.417 533.86,422.559 516.412,439.844 " fill="none" style="stroke: #A80036; stroke-width: 1.0;"/><polygon fill="#A80036" points="512.542,443.678,521.7514,440.1871,516.0946,440.1596,516.1221,434.5029,512.542,443.678" style="stroke: #A80036; stroke-width: 1.0;"/></g></svg>